# xmcd
# 
# Track frame offsets:
#     150
#     19752
#     36430
#     59610
#     78192
#     94425
#     114390
#     134617
#     151685
#     167560
#     185845
#     203920
#     220772
# 
# Disc length: 4142
# 
# Revision: 6
# Processed by: cddbd v1.5.2PL0 Copyright (c) Steve Scherf et al.
# Submitted via: fre:ac v1.0.17
# 
DISCID=b5102c0d
DTITLE=Bootsauce - Bull
DYEAR=1992
DGENRE=Funk
TTITLE0=Love Monkey #9
TTITLE1=Touching Cloth
TTITLE2=Whatcha' Need
TTITLE3=Big, Bad and Groovy
TTITLE4=Dogpound
TTITLE5=Outhouse Quake
TTITLE6=The 13th Psalm
TTITLE7=Misunderstood
TTITLE8=Rollercoaster's Child
TTITLE9=I Saw You There
TTITLE10=The Whole Of You
TTITLE11=Bad Dinner
TTITLE12=Hold Tight
EXTD=
EXTT0=
EXTT1=
EXTT2=
EXTT3=
EXTT4=
EXTT5=
EXTT6=
EXTT7=
EXTT8=
EXTT9=
EXTT10=
EXTT11=
EXTT12=
PLAYORDER=
